<?xml version="1.0" encoding="utf-8"?>
<!-- Svg Vector Icons : http://www.onlinewebfonts.com/icon -->
<!DOCTYPE svg PUBLIC "-//W3C//DTD SVG 1.1//EN" "http://www.w3.org/Graphics/SVG/1.1/DTD/svg11.dtd">
<svg version="1.1" xmlns="http://www.w3.org/2000/svg" xmlns:xlink="http://www.w3.org/1999/xlink" x="0px" y="0px" viewBox="0 0 1000 1000" enable-background="new 0 0 1000 1000" xml:space="preserve">
<metadata> Svg Vector Icons : http://www.onlinewebfonts.com/icon </metadata>
<g><g transform="translate(0.000000,512.000000) scale(0.100000,-0.100000)"><path d="M3600.6,5011.9c-857.1-95.2-1560.7-701.7-1780.4-1533.5c-42.8-159.4-52.5-239.1-60.2-559.8l-7.8-371.2l-470.4-7.8c-435.4-5.8-474.2-9.7-546.2-48.6c-97.2-52.5-155.5-112.7-192.4-204.1c-23.3-52.5-87.5-746.4-237.1-2536.5c-112.7-1354.7-206-2517-206-2581.2c-3.9-182.7,83.6-322.6,241-388.7c64.1-25.3,404.3-29.2,3018.5-29.2h2944.6v408.2v408.2H3620.1H937.8l11.7,103c5.8,54.4,79.7,944.6,165.2,1976.7c85.5,1032.1,159.4,1922.3,165.2,1978.6l11.7,101.1h233.2h231.3v-622v-622h408.2h408.2v622v622h1243.9h1243.9v-622v-622h408.2h408.2v622v622h233.2c173,0,233.2-5.8,235.2-23.3c0-13.6,54.4-668.6,120.5-1453.8l120.5-1428.6l404.3-5.8l402.4-3.9v60.3c0,33-60.2,796.9-136.1,1696.8C7159.5,1733,7112.8,2226.7,7089.5,2285c-40.8,110.8-161.3,211.9-283.8,237.1c-52.5,11.7-281.8,21.4-509.2,21.4h-415.9l-7.8,375.1c-7.8,320.7-17.5,400.4-60.2,559.8C5552,4461.9,4597.7,5122.7,3600.6,5011.9z M4212.9,4141.2c309-101.1,571.4-328.5,713.3-616.1c112.7-231.3,134.1-340.1,134.1-684.2v-297.4H3816.4H2572.4v297.4c0,200.2,9.7,334.3,29.2,412.1c42.8,167.2,167.2,410.1,272.1,530.6c176.9,200.2,470.4,363.5,732.8,410.1C3769.7,4222.8,4036,4201.4,4212.9,4141.2z"/><path d="M7134.2-2020.2l-285.7-285.7l476.2-476.2l476.2-476.2l-476.2-476.2l-476.2-476.2l287.6-287.7l285.7-285.7l466.5,466.5c256.5,256.6,474.3,466.5,485.9,466.5c9.7,0,229.3-209.9,485.9-466.5l466.5-466.5l287.6,287.7l285.7,285.7l-466.5,466.5c-256.6,256.6-466.5,474.3-466.5,485.9c0,9.7,209.9,229.3,466.5,485.9l466.5,466.5l-287.7,287.7l-285.7,285.7l-476.2-476.2l-476.2-476.2L7898-2208.7l-476.2,476.2L7134.2-2020.2z"/></g></g>
</svg>